# xmcd CD database file
# Copyright (C) 1993-1998 Ti Kan
#
# Track frame offsets:
#	150
#	11387
#	23392
#	36340
#	47812
#	58220
#	71727
#	83752
#	97255
#	108570
#	120942
#	133327
#	146795
#	159485
#	171055
#	182360
#	194955
#	208580
#	220555
#	231555
#
# Disc length: 3242 seconds
#
# Revision: 2
# Processed by: cddbd v1.4PL0 Copyright (c) Steve Scherf et al.
# Submitted via: Gronk 1.4
#
DISCID=250ca814
DTITLE=Johnny Ace - Memorial Album
DYEAR=1900
DGENRE=blues
TTITLE0=Pledging My Love
TTITLE1=Don't You Know
TTITLE2=Never Let Me Go
TTITLE3=So Lonely
TTITLE4=I'm Crazy Baby
TTITLE5=My Song
TTITLE6=Saving My Love For You
TTITLE7=The Clock
TTITLE8=How Can You Be So Mean
TTITLE9=Still Love You So
TTITLE10=Cross My Heart
TTITLE11=Anymore
TTITLE12=No Money
TTITLE13=Ace's Wild
TTITLE14=Follow The Rule
TTITLE15=Yes Baby (with Big Mama Thornton)
TTITLE16=Angel
TTITLE17=Burley Cutie
TTITLE18=Please Forgive Me
TTITLE19=You Been Gone To Long
EXTD=
EXTT0=
EXTT1=
EXTT2=
EXTT3=
EXTT4=
EXTT5=
EXTT6=
EXTT7=
EXTT8=
EXTT9=
EXTT10=
EXTT11=
EXTT12=
EXTT13=
EXTT14=
EXTT15=
EXTT16=
EXTT17=
EXTT18=
EXTT19=
PLAYORDER=
